# xmcd CD database file
#
# Track frame offsets:
#	150
#	23843
#	49201
#	72894
#
# Disc length: 1307 seconds
#
# Revision: 0
# Processed by: cddbd v1.5.1PL0 Copyright (c) Steve Scherf et al.
# Submitted via: CDex 1.51
#
DISCID=2f051904
DTITLE=Native Sense - ツバサ † 祈りに咲く花
DYEAR=1900
DGENRE=J ポップ
TTITLE0=ツバサ
TTITLE1=祈りに咲く花
TTITLE2=ツバサ off vocal
TTITLE3=祈りに咲く花 off vocal
EXTD=
EXTT0=
EXTT1=
EXTT2=
EXTT3=
PLAYORDER=
